# xmcd
#
# Track frame offsets:
#	150
#	11710
#	21675
#	33710
#	45023
#	54948
#	66820
#	81588
#	93125
#	106633
#	122863
#	143228
#	158238
#	170638
#	181975
#	197238
#
# Disc length: 2797
#
# Revision: 2
# Processed by: cddbd v1.5.1PL0 Copyright (c) Steve Scherf et al.
# Submitted via: EasyCDDAExtractor 7.0.4.1
# Normalized: r1:DSETVAR1
#
DISCID=d70aeb10
DTITLE=Various Artist - Blues Festival
DYEAR=1900
DGENRE=Blues
TTITLE0=John Lee Hooker - Boogie Chilln'
TTITLE1=John Lee Hooker - Dimples
TTITLE2=Jimmy Reed - Little Rain
TTITLE3=Jimmy Reed - Where Can You Be
TTITLE4=Memphis Slim - Diggin' Potatoes
TTITLE5=Leadbelly - Boll
TTITLE6=Leadbelly - In New Orleans
TTITLE7=Lightnin' Hopkins - Sometimes She Will
TTITLE8=Lightnin' Hopkins - Mojo Hand
TTITLE9=B. B. King - It's My Own Fault Baby
TTITLE10=Lightnin' Hopkins - Glory Be
TTITLE11=Muddy Waters - Iodine In My Coffee
TTITLE12=Muddy Waters - So Glad I'M Living
TTITLE13=Muddy Waters - Sugar Sweet
TTITLE14=Howlin Wolf - Commit A Crime
TTITLE15=Howlin Wolf - My Mind Is Ramblin
EXTD=
EXTT0=
EXTT1=
EXTT2=
EXTT3=
EXTT4=
EXTT5=
EXTT6=
EXTT7=
EXTT8=
EXTT9=
EXTT10=
EXTT11=
EXTT12=
EXTT13=
EXTT14=
EXTT15=
PLAYORDER=
